# xmcd
#
# Track frame offsets:
#	150
#	13053
#	25603
#	47759
#	59765
#	74341
#	86845
#	96396
#	105233
#	117797
#	127651
#	140217
#	150666
#	164819
#	179291
#	191634
#	237428
#
# Disc length: 3504 seconds
#
# Revision: 1
# Processed by: cddbd v1.5.2PL0 Copyright (c) Steve Scherf et al.
# Submitted via: audiograbber 1.83.01
#
DISCID=ee0dae11
DTITLE=Devils and Soehne - Black Forest Boogie
DYEAR=2009
DGENRE=Hillibilly
TTITLE0=Drivin' nails in my coffin
TTITLE1=Hellvalley rag
TTITLE2=Chalewian cowboy
TTITLE3=Ole slow foot
TTITLE4=I'll hold you in my heart
TTITLE5=Pretty Sue
TTITLE6=Cry baby cry
TTITLE7=Going back to ole Kentucky
TTITLE8=Get behind me satan
TTITLE9=Black forest boogie
TTITLE10=Hillibilly daddy
TTITLE11=Cherokee boogie
TTITLE12=I wanna be a cowboy's sweetheart
TTITLE13=Senorita Angelita
TTITLE14=Ring of fire
TTITLE15=Lonesome cowboy
TTITLE16=Daten-CD
EXTD=
EXTT0=
EXTT1=
EXTT2=
EXTT3=
EXTT4=
EXTT5=
EXTT6=
EXTT7=
EXTT8=
EXTT9=
EXTT10=
EXTT11=
EXTT12=
EXTT13=
EXTT14=
EXTT15=
EXTT16=
PLAYORDER=
